<svg width="33" height="27" viewBox="0 0 33 27" fill="none" xmlns="http://www.w3.org/2000/svg">
<path d="M32.4612 3.92278C31.2904 4.44162 30.0325 4.79218 28.7102 4.95063C30.0746 4.13423 31.0954 2.84932 31.582 1.33564C30.3002 2.09704 28.8972 2.63299 27.4342 2.92018C26.4503 1.86971 25.1472 1.17344 23.7271 0.939468C22.307 0.7055 20.8494 0.946924 19.5805 1.62626C18.3117 2.30559 17.3026 3.38483 16.71 4.69641C16.1174 6.00799 15.9744 7.47853 16.3031 8.87973C13.7057 8.74931 11.1648 8.07421 8.84517 6.89822C6.52557 5.72223 4.47916 4.07165 2.83875 2.05359C2.27785 3.02114 1.95533 4.14294 1.95533 5.33765C1.95471 6.41317 2.21956 7.47221 2.7264 8.42082C3.23324 9.36942 3.96638 10.1783 4.86079 10.7756C3.82351 10.7426 2.80912 10.4623 1.90205 9.95806V10.0422C1.90194 11.5506 2.42373 13.0127 3.37887 14.1802C4.33401 15.3478 5.66368 16.1489 7.14225 16.4477C6.18 16.7081 5.17116 16.7464 4.19192 16.5598C4.60908 17.8578 5.42168 18.9928 6.51596 19.8059C7.61023 20.6191 8.9314 21.0697 10.2945 21.0947C7.98056 22.9112 5.12285 23.8965 2.1811 23.8922C1.65999 23.8923 1.13933 23.8619 0.621796 23.801C3.60785 25.721 7.08383 26.7399 10.6338 26.7359C22.6511 26.7359 29.2206 16.7828 29.2206 8.15056C29.2206 7.87011 29.2136 7.58686 29.201 7.30641C30.4789 6.38229 31.5819 5.23795 32.4584 3.92699L32.4612 3.92278Z" fill="#F8F8F8"/>
</svg>
